:SAMPLES-PER-SECOND 24
:FULLY-SPECIFIED
:DEGREES
398
root  4.42254 40.8078 23.6131 6.53174 -77.4063 -0.760895
RightUpLeg  -9.37329 3.82328 -12.1915
RightLeg  21.3652 -1.37965 -0.800873
RightFoot  -5.92114 -0.595226 11.6912
RightToes  -2.08645e-008 3.77894e-005 6.81332e-007
Spine  -3.307 0.985758 1.97888
Spine1  6.56767 0.474371 1.18868
HEad  -31.7 41.5399 -20.4389
LeftShoulder1  7.51041 -13.1909 -38.8454
LeftArm  -2.6988 26.792 -32.3285
LeftForeArm  157.223 -71.2454 -149.757
LeftHand  -0.434225 -1.90803 7.09319
RightShoulder  4.34305 7.02662 35.337
RightArm  14.134 -30.0315 33.5608
RightForeArm  142.13 78.6399 125.378
RightHand  -0.0410002 9.40264 -0.728294
LeftUpLeg  -11.4406 0.491505 7.23841
LeftLeg  16.4842 1.10325 0.850968
LeftFoot  1.68533 1.72577 -15.0928
LeftToes  1.24767e-006 1.47042e-008 1.32732e-009
399
root  4.39479 41.3097 23.0055 8.99243 -76.8513 -2.83173
RightUpLeg  -9.72608 5.30591 -11.2591
RightLeg  22.2651 -1.79417 -1.0238
RightFoot  -2.00658 -0.903639 10.8695
RightToes  -2.08645e-008 3.77894e-005 6.81332e-007
Spine  -3.22374 0.478563 2.52855
Spine1  5.55215 -0.016685 1.15631
HEad  -29.2221 41.6133 -18.898
LeftShoulder1  7.23616 -12.9481 -37.8829
LeftArm  -1.14157 25.7842 -32.1158
LeftForeArm  155.23 -72.3272 -147.547
LeftHand  -0.390336 -2.23823 6.14335
RightShoulder  4.25792 6.96362 34.7801
RightArm  14.1327 -29.6426 33.9795
RightForeArm  135.713 79.2 120.166
RightHand  0.134862 9.51368 0.644861
LeftUpLeg  -11.6386 3.53338 8.94975
LeftLeg  14.3024 -2.38874 -0.238959
LeftFoot  6.87919 2.59639 -16.3604
LeftToes  1.24767e-006 1.47042e-008 1.32732e-009
400
root  4.45712 41.1755 22.3538 10.0107 -76.3484 -3.85977
RightUpLeg  -10.3097 6.45015 -10.9023
RightLeg  24.9404 1.20999 0.393182
RightFoot  -0.00986808 -1.20923 12.2052
RightToes  -2.08645e-008 3.77894e-005 6.81332e-007
Spine  -2.68174 0.114119 3.08974
Spine1  5.10632 -0.246151 0.464097
HEad  -28.156 41.0548 -18.2201
LeftShoulder1  6.9439 -12.6988 -36.7947
LeftArm  0.882052 22.5176 -31.332
LeftForeArm  152.108 -74.3016 -142.85
LeftHand  -0.429347 -2.56339 6.48466
RightShoulder  4.14733 6.90989 33.9366
RightArm  14.1567 -27.2209 34.2991
RightForeArm  116.903 80.1795 104.484
RightHand  -0.234818 7.99683 -2.4193
LeftUpLeg  -12.8607 2.43308 10.3421
LeftLeg  15.6796 -2.27052 -0.252883
LeftFoot  6.92285 2.73162 -17.1629
LeftToes  1.24767e-006 1.47042e-008 1.32732e-009
401
root  4.58807 40.4296 21.6515 10.6458 -75.8123 -5.17087
RightUpLeg  -9.25187 7.98044 -10.3393
RightLeg  26.2809 4.07214 1.9615
RightFoot  -4.98078 -0.75112 12.9514
RightToes  -2.08645e-008 3.77894e-005 6.81332e-007
Spine  -0.521008 -0.0215291 3.1139
Spine1  3.86759 -0.359169 0.752946
HEad  -28.2674 39.9124 -17.9695
LeftShoulder1  6.81138 -12.6179 -36.2042
LeftArm  2.472 18.4923 -29.9994
LeftForeArm  149.5 -75.4761 -139.292
LeftHand  -0.464761 -2.71237 6.88485
RightShoulder  4.0439 6.87458 33.0784
RightArm  14.2253 -24.7058 33.4769
RightForeArm  104.254 80.4048 93.3295
RightHand  -0.510401 6.70403 -5.22221
LeftUpLeg  -14.6939 -0.861009 11.9125
LeftLeg  20.3313 0.101771 0.365132
LeftFoot  1.79184 2.05886 -17.8741
LeftToes  1.24767e-006 1.47042e-008 1.32732e-009
402
root  4.81211 39.2902 20.9202 12.1353 -75.915 -8.3587
RightUpLeg  -7.78131 8.4754 -8.39132
RightLeg  28.1223 3.79461 1.97491
RightFoot  -14.1067 0.124479 9.62509
RightToes  -2.08645e-008 3.77894e-005 6.81332e-007
Spine  3.4737 0.333221 3.47522
Spine1  2.39762 0.0867359 1.30996
HEad  -29.982 38.2263 -18.1696
LeftShoulder1  6.78936 -12.6303 -36.0385
LeftArm  3.10061 13.4108 -28.7228
LeftForeArm  146.886 -76.0829 -136.918
LeftHand  -0.508698 -2.84448 7.40109
RightShoulder  3.89861 6.76509 32.0761
RightArm  13.4036 -21.2894 32.6863
RightForeArm  91.0084 80.2739 79.8781
RightHand  -0.517767 6.9404 -5.21857
LeftUpLeg  -15.8947 -1.8378 13.6986
LeftLeg  26.1184 1.49545 1.13601
LeftFoot  -5.22679 0.970398 -17.4109
LeftToes  1.24767e-006 1.47042e-008 1.32732e-009
403
root  5.055 38.1426 20.2487 14.8213 -77.0079 -12.5347
RightUpLeg  -8.34171 9.02852 -5.86
RightLeg  32.1529 1.25618 0.606748
RightFoot  -21.2625 0.317071 5.31136
RightToes  -2.08645e-008 3.77894e-005 6.81332e-007
Spine  6.34848 0.875837 4.6553
Spine1  2.87743 1.04662 0.205102
HEad  -33.3104 36.7667 -18.9807
LeftShoulder1  6.79512 -12.6503 -36.0226
LeftArm  2.14731 8.43142 -27.6386
LeftForeArm  145.767 -76.9701 -133.631
LeftHand  -0.57955 -2.91061 8.33615
RightShoulder  3.82856 6.69782 31.6378
RightArm  11.7384 -16.6282 32.93
RightForeArm  70.6624 78.8484 58.5428
RightHand  -0.589151 7.28409 -5.74151
LeftUpLeg  -16.6657 -2.04175 15.4336
LeftLeg  31.1738 2.5842 2.03674
LeftFoot  -11.8452 -0.00440625 -16.9347
LeftToes  1.24767e-006 1.47042e-008 1.32732e-009
404
root  5.18283 37.4074 19.7634 16.6553 -77.5645 -14.5791
RightUpLeg  -9.65279 11.4256 -4.04933
RightLeg  35.226 -1.85187 -1.65201
RightFoot  -25.3673 0.338532 4.119
RightToes  -2.08645e-008 3.77894e-005 6.81332e-007
Spine  7.0282 0.746318 5.32854
Spine1  4.23915 1.26395 -1.26298
HEad  -38.0773 36.3638 -21.2222
LeftShoulder1  6.90841 -12.7576 -36.4302
LeftArm  -0.606603 8.65356 -26.5587
LeftForeArm  150.945 -76.7771 -135.461
LeftHand  -0.596325 -2.95054 8.53147
RightShoulder  3.90996 6.75857 32.212
RightArm  9.93181 -14.8373 33.5216
RightForeArm  66.0054 78.076 52.1187
RightHand  -0.751315 6.74558 -7.51543
LeftUpLeg  -18.5682 -2.71862 16.5537
LeftLeg  35.4433 3.44214 2.99469
LeftFoot  -15.2855 -0.513569 -17.5119
LeftToes  1.24767e-006 1.47042e-008 1.32732e-009
405
root  5.17321 37.4164 19.6219 15.6248 -76.3718 -12.7959
RightUpLeg  -9.61164 13.1047 -3.5774
RightLeg  34.3516 -4.25599 -3.35659
RightFoot  -25.8694 0.437814 4.8051
RightToes  -2.08645e-008 3.77894e-005 6.81332e-007
Spine  6.94518 -0.195737 4.68964
Spine1  4.2851 0.132021 -0.749245
HEad  -43.2437 36.7333 -24.7481
LeftShoulder1  7.18802 -12.9988 -37.4693
LeftArm  -3.32564 15.6568 -26.4749
LeftForeArm  157.556 -74.7913 -142.602
LeftHand  -0.554907 -2.69704 8.18836
RightShoulder  4.04728 6.83162 33.273
RightArm  8.43904 -18.7053 33.6093
RightForeArm  82.0797 79.7719 67.4504
RightHand  -0.840588 6.33742 -8.62958
LeftUpLeg  -21.2897 -2.81194 16.5183
LeftLeg  37.7075 4.03486 3.70666
LeftFoot  -12.6923 -0.130828 -16.8
LeftToes  1.24767e-006 1.47042e-008 1.32732e-009
406
root  5.09061 38.1584 19.8772 14.1677 -75.3474 -9.97855
RightUpLeg  -8.80643 12.5139 -4.66775
RightLeg  29.9699 -4.32079 -2.91984
RightFoot  -21.6673 0.369893 5.68573
RightToes  -2.08645e-008 3.77894e-005 6.81332e-007
Spine  6.36653 -0.670127 3.72628
Spine1  3.31905 -0.70545 0.567631
HEad  -45.8387 37.3753 -26.9652
LeftShoulder1  7.42375 -13.1952 -38.3363
LeftArm  -4.39355 24.7243 -28.6656
LeftForeArm  157.219 -73.7244 -145.07
LeftHand  -0.548068 -2.3094 8.4703
RightShoulder  4.12981 6.84378 34.0214
RightArm  7.40377 -25.8378 33.1277
RightForeArm  100.897 80.4984 87.7871
RightHand  -0.832595 6.51634 -8.43476
LeftUpLeg  -22.3191 -0.835316 14.8105
LeftLeg  35.6976 3.60937 3.13403
LeftFoot  -8.33696 0.438375 -14.8642
LeftToes  1.24767e-006 1.47042e-008 1.32732e-009
407
root  4.98495 39.2279 20.4287 14.9614 -76.8096 -9.12283
RightUpLeg  -8.62149 11.8388 -6.86384
RightLeg  24.5359 -1.60929 -1.0254
RightFoot  -14.7399 0.121568 7.46243
RightToes  -2.08645e-008 3.77894e-005 6.81332e-007
Spine  4.9508 0.101299 3.6552
Spine1  2.46329 0.0634256 0.360041
HEad  -44.817 38.7782 -26.4345
LeftShoulder1  7.37113 -13.1469 -38.1566
LeftArm  -4.89013 32.8583 -32.3736
LeftForeArm  154.061 -74.396 -142.972
LeftHand  -0.531176 -2.51979 8.01175
RightShoulder  4.13376 6.82944 34.1143
RightArm  7.32625 -32.5831 32.2687
RightForeArm  100.339 80.405 89.4915
RightHand  -0.777273 6.52859 -7.89037
LeftUpLeg  -20.5505 3.1311 12.1499
LeftLeg  30.2881 1.14391 1.0699
LeftFoot  -7.79583 0.531562 -15.5929
LeftToes  1.24767e-006 1.47042e-008 1.32732e-009
408
root  4.91335 40.1478 21.1234 17.9922 -79.4763 -11.0175
RightUpLeg  -9.07413 11.6732 -8.981
RightLeg  20.5719 1.6714 0.487866
RightFoot  -8.04945 -0.330588 9.61468
RightToes  -2.08645e-008 3.77894e-005 6.81332e-007
Spine  3.63332 1.0475 4.09906
Spine1  1.94007 1.16014 -0.486475
HEad  -42.8309 41.2915 -24.7968
LeftShoulder1  7.21001 -13.0302 -37.5194
LeftArm  -5.81398 39.529 -35.2501
LeftForeArm  151.536 -74.996 -140.995
LeftHand  -0.429363 -2.91566 6.23357
RightShoulder  4.11387 6.83877 33.8875
RightArm  9.00406 -36.3367 30.6413
RightForeArm  81.679 79.8509 72.6966
RightHand  -0.68127 6.2846 -7.09313
LeftUpLeg  -17.8134 6.91371 9.57587
LeftLeg  25.8738 -0.842597 -0.122793
LeftFoot  -7.75557 0.627573 -18.33
LeftToes  1.24767e-006 1.47042e-008 1.32732e-009
